<svg preserveAspectRatio="none" overflow="visible" style="display: block;" width="104.451" height="85.6598" viewBox="0 0 104.451 85.6598" fill="none" xmlns="http://www.w3.org/2000/svg">
<g id="Group">
<path id="Vector" d="M39.321 0.520157C53.8105 -1.19484 80.0035 1.10514 91.7185 10.8151C99.197 17.0151 100.894 20.8702 102.098 29.9002C93.4625 29.9602 84.827 29.9501 76.192 29.8701C70.849 20.7351 53.299 20.9001 43.921 20.9501C39.2135 21.2851 32.0185 21.8402 28.784 25.5952C26.786 27.9152 29.705 31.0651 32.1255 31.7451C36.7305 33.0301 41.4355 32.9551 46.211 33.4451C63.229 35.1851 83.8355 34.4102 98.4285 44.4702C102.091 47.6002 104.31 52.7651 104.439 57.4101C105.129 82.1051 76.2505 84.7252 58.007 85.5852C38.6715 86.2002 8.3935 83.4251 1.08 61.5401C0.425002 59.5851 0.202 56.4051 0 54.2951C9.3695 54.4751 17.46 54.6002 26.84 54.2702C30.191 60.8202 34.895 63.9551 42.6885 64.8801C52.2165 66.0051 69.525 67.3151 78.137 62.2301C83.057 56.9151 77.362 53.6952 73.33 52.6402C55.984 48.1052 5.7555 53.7051 2.938 29.1651C2.1995 23.2551 3.9655 17.3101 7.808 12.7601C14.8245 4.30015 29.0155 1.57016 39.321 0.520157Z" fill="black"/>
</g>
</svg>
