<svg preserveAspectRatio="none" overflow="visible" style="display: block;" width="73.494" height="98.6765" viewBox="0 0 73.494 98.6765" fill="none" xmlns="http://www.w3.org/2000/svg">
<g id="Group">
<path id="Vector" d="M16.2295 0.169983L40.1805 0L40.199 17.06L73.1065 17.02C73.2755 23.585 73.18 30.54 73.192 37.135C62.2425 37.27 51.2915 37.275 40.342 37.14C40.304 45.615 38.8165 64.505 42.9875 71.615C47.3135 78.99 66.6085 77.98 73.1605 73.305C73.5845 74.525 73.4745 76.71 73.494 78.125L73.4055 94.715C59.3 100.71 34.2615 100.675 22.5765 89.195C17.1295 83.845 15.7945 76.18 15.871 68.84C15.98 58.395 16.055 47.94 16.0895 37.49C10.831 37.355 5.30201 37.47 0.0225058 37.495C-0.0334942 30.705 0.0150136 23.91 0.168014 17.12L16.027 17.02C16.292 11.895 16.1875 5.39998 16.2295 0.169983Z" fill="black"/>
</g>
</svg>
